<?xml version="1.0" standalone="no"?>
<!DOCTYPE svg PUBLIC "-//W3C//DTD SVG 20010904//EN"
 "http://www.w3.org/TR/2001/REC-SVG-20010904/DTD/svg10.dtd">
<svg version="1.0" xmlns="http://www.w3.org/2000/svg"
 width="512.000000pt" height="512.000000pt" viewBox="0 0 512.000000 512.000000"
 preserveAspectRatio="xMidYMid meet">

<g transform="translate(0.000000,512.000000) scale(0.100000,-0.100000)"
fill="#000000" stroke="none">
<path d="M1973 4948 c-11 -13 -69 -97 -129 -187 l-109 -164 0 -684 c0 -666 1
-685 19 -699 29 -21 1583 -21 1612 0 18 14 19 33 19 699 l0 684 -109 164 c-60
90 -118 174 -129 187 l-20 22 -567 0 -567 0 -20 -22z m401 -135 c-3 -21 -11
-67 -17 -103 l-12 -65 -219 -3 -218 -2 18 28 c11 16 42 64 69 105 l50 77 168
0 167 0 -6 -37z m255 -25 c6 -35 13 -82 17 -105 l7 -43 -93 0 -93 0 7 43 c4
23 11 70 17 105 l11 62 58 0 58 0 11 -62z m496 -15 c28 -41 58 -89 69 -105
l18 -28 -218 2 -219 3 -12 65 c-6 36 -14 82 -17 103 l-6 37 167 0 168 0 50
-77z m-795 -504 c0 -169 4 -257 11 -272 28 -53 59 -49 143 18 38 30 72 55 76
55 4 0 38 -25 76 -55 84 -67 115 -71 143 -18 7 15 11 103 11 273 l0 250 238
-2 237 -3 3 -597 2 -598 -710 0 -710 0 0 593 c0 327 3 597 7 600 3 4 111 7
240 7 l233 0 0 -251z m338 64 c1 -101 -1 -183 -5 -183 -5 1 -24 14 -43 30 -43
38 -72 38 -120 0 -21 -16 -41 -30 -44 -30 -8 0 -8 355 1 364 4 4 52 5 107 4
l101 -3 3 -182z"/>
<path d="M1062 3183 c-31 -28 -905 -1305 -910 -1330 -2 -13 1 -30 8 -38 25
-31 509 -355 529 -355 20 0 33 11 78 68 l18 23 42 -59 c22 -32 75 -94 116
-138 l76 -81 -29 -43 c-52 -79 -58 -176 -15 -259 23 -45 92 -100 140 -113 25
-7 43 -17 41 -23 -66 -150 -27 -282 104 -351 24 -13 57 -19 106 -19 62 0 77 4
121 31 l51 32 30 -43 c20 -28 48 -52 86 -70 48 -24 64 -27 118 -22 35 3 72 8
83 12 16 5 24 -2 40 -31 42 -78 124 -124 221 -124 79 1 142 37 204 118 l25 32
160 -101 c88 -55 177 -110 199 -121 153 -78 349 25 372 196 6 42 8 44 31 35
13 -5 52 -9 86 -9 135 0 239 90 262 227 l7 41 62 0 c150 -1 266 110 266 254
l0 58 33 0 c47 0 127 41 168 87 67 74 87 199 45 281 l-15 30 47 17 c65 24 159
82 210 129 23 21 44 37 45 35 2 -2 20 -28 41 -56 31 -43 43 -53 67 -53 21 0
95 45 271 166 134 92 249 174 256 182 6 9 12 24 12 35 0 18 -891 1324 -914
1339 -32 22 -71 1 -311 -165 -292 -201 -287 -193 -214 -296 24 -34 40 -64 36
-67 -11 -12 -241 -8 -301 5 -32 7 -91 26 -130 43 -132 55 -153 60 -261 55
-111 -6 -341 -61 -591 -141 -156 -51 -185 -53 -356 -35 -165 18 -380 90 -361
122 4 7 20 30 35 51 27 38 35 79 20 102 -14 21 -505 354 -522 354 -10 0 -27
-8 -38 -17z m237 -254 c97 -67 179 -124 184 -128 9 -9 -800 -1186 -816 -1186
-16 0 -366 237 -366 249 -1 8 198 299 656 964 85 122 157 222 160 222 3 0 84
-55 182 -121z m3120 -488 c221 -321 400 -587 399 -592 -5 -13 -362 -257 -370
-253 -3 2 -190 270 -413 596 -305 442 -404 593 -394 599 8 4 93 62 189 128 96
67 177 118 181 113 4 -4 187 -270 408 -591z m-1356 151 c140 -65 301 -89 466
-72 58 6 109 12 114 13 5 1 143 -194 308 -432 l299 -435 -37 -38 c-21 -22 -60
-53 -86 -70 -51 -33 -165 -78 -196 -78 -11 0 -259 151 -552 336 -294 185 -552
346 -574 359 -34 20 -63 25 -199 35 -87 6 -170 9 -184 5 -15 -4 -59 -38 -100
-76 -85 -82 -171 -139 -251 -170 -77 -30 -194 -30 -275 -1 -32 12 -61 23 -63
26 -8 8 209 316 246 348 73 64 307 149 656 239 170 44 199 49 275 45 69 -2 98
-9 153 -34z m-1318 -111 c50 -11 107 -23 128 -26 l38 -6 -38 -42 c-21 -23 -92
-121 -158 -217 -155 -227 -156 -242 -17 -310 228 -111 458 -59 694 159 l67 62
137 -10 137 -11 196 -123 c975 -614 968 -609 991 -650 52 -93 -17 -207 -126
-207 -37 0 -76 22 -330 181 -518 326 -463 295 -492 278 -37 -21 -48 -43 -35
-71 7 -16 125 -96 340 -231 182 -114 342 -221 358 -237 36 -37 45 -111 21
-159 -33 -64 -128 -91 -195 -56 -16 8 -172 105 -347 215 -175 110 -326 200
-336 200 -23 0 -58 -35 -58 -58 0 -10 6 -26 13 -35 6 -9 136 -94 287 -190 253
-159 277 -176 298 -217 50 -98 -16 -200 -129 -200 -42 0 -65 12 -274 146 -126
80 -238 149 -249 154 -48 17 -91 -33 -70 -80 5 -11 78 -63 163 -117 85 -54
163 -110 174 -125 29 -39 33 -115 8 -156 -32 -49 -77 -74 -131 -69 -36 3 -73
21 -180 89 -74 47 -154 97 -177 111 l-42 27 33 55 c55 90 56 168 3 258 -33 56
-89 94 -160 109 l-57 12 0 43 c0 103 -108 223 -200 223 -19 0 -21 3 -13 32 14
58 8 140 -15 184 -75 146 -267 177 -387 63 l-31 -29 -37 44 c-49 59 -107 86
-183 86 -100 -1 -165 -42 -234 -149 -17 -28 -36 -51 -40 -51 -4 0 -36 30 -70
67 -74 78 -163 210 -153 227 10 17 573 837 600 873 l23 32 83 -39 c45 -21 123
-47 172 -59z m-306 -1047 c36 -30 53 -82 41 -124 -10 -37 -183 -287 -219 -317
-38 -33 -109 -32 -150 3 -39 32 -54 84 -38 129 18 48 196 300 226 318 41 26
104 22 140 -9z m426 -34 c33 -31 48 -74 41 -112 -9 -44 -434 -656 -477 -685
-17 -13 -46 -23 -63 -23 -71 0 -135 76 -122 144 9 42 436 655 478 684 41 30
107 26 143 -8z m211 -354 c28 -28 34 -42 34 -76 0 -53 1 -51 -146 -261 -125
-178 -146 -199 -205 -199 -87 0 -147 97 -108 173 28 52 253 369 272 382 12 8
43 15 70 15 42 0 54 -5 83 -34z m219 -252 c45 -21 68 -59 68 -110 0 -35 -11
-58 -83 -162 -47 -66 -96 -127 -111 -136 -95 -56 -212 37 -176 140 7 19 47 84
90 145 97 137 136 159 212 123z"/>
</g>
</svg>
