<svg xmlns="http://www.w3.org/2000/svg" width="512" height="512" viewBox="0 0 512 512">
  <path d="M 333.00 192.50 L 178.00 192.50 L 173.50 190.00 L 172.50 51.00 L 198.00 14.50 L 313.00 14.50 L 316.50 18.00 L 338.50 52.00 L 338.50 188.00 L 333.00 192.50 Z M 233.50 47.00 L 236.00 26.50 L 205.00 26.50 L 191.50 47.00 L 233.50 47.00 Z M 264.50 47.00 L 260.50 27.00 L 251.00 26.50 L 246.50 47.00 L 264.50 47.00 Z M 319.50 47.00 L 306.00 26.50 L 274.50 27.00 L 278.00 47.50 L 319.50 47.00 Z M 325.50 179.00 L 325.00 60.50 L 278.50 61.00 L 278.50 112.00 L 275.00 115.50 L 269.00 115.50 L 257.00 105.50 L 254.00 105.50 L 242.00 115.50 L 236.00 115.50 L 232.50 112.00 L 232.00 60.50 L 185.50 61.00 L 186.00 179.50 L 325.50 179.00 Z M 265.50 95.00 L 265.50 61.00 L 246.00 60.50 L 245.50 95.00 L 254.00 89.50 L 257.00 89.50 L 265.50 95.00 Z M 288.00 496.50 L 271.00 495.50 L 235.00 472.50 L 224.00 483.50 L 214.00 487.50 L 207.00 487.50 L 196.00 483.50 L 186.00 470.50 L 178.00 473.50 L 168.00 472.50 L 159.00 467.50 L 153.00 459.50 L 142.00 465.50 L 129.00 465.50 L 124.00 463.50 L 115.50 456.00 L 111.50 447.00 L 111.50 435.00 L 114.50 428.00 L 104.00 423.50 L 97.50 417.00 L 93.50 408.00 L 94.50 394.00 L 100.50 384.00 L 89.50 373.00 L 78.00 357.50 L 71.00 365.50 L 65.00 365.50 L 14.50 330.00 L 15.50 322.00 L 106.00 191.50 L 114.00 192.50 L 158.00 222.50 L 163.50 228.00 L 163.50 233.00 L 156.50 243.00 L 158.00 244.50 L 172.00 250.50 L 193.00 254.50 L 216.00 254.50 L 242.00 245.50 L 285.00 235.50 L 304.00 237.50 L 316.00 243.50 L 327.00 246.50 L 352.00 247.50 L 355.50 245.00 L 347.50 234.00 L 348.50 228.00 L 399.00 192.50 L 404.00 192.50 L 411.50 201.00 L 495.50 323.00 L 496.50 331.00 L 495.00 333.50 L 447.00 366.50 L 439.00 366.50 L 431.00 356.50 L 421.00 365.50 L 403.00 373.50 L 405.50 380.00 L 404.50 397.00 L 401.50 403.00 L 395.00 409.50 L 379.50 415.00 L 378.50 427.00 L 373.50 436.00 L 361.00 444.50 L 346.00 444.50 L 342.50 459.00 L 332.00 469.50 L 323.00 472.50 L 314.00 472.50 L 309.00 470.50 L 303.50 486.00 L 297.00 492.50 L 288.00 496.50 Z M 67.50 349.00 L 147.50 233.00 L 111.00 206.50 L 29.50 325.00 L 65.00 349.50 L 67.50 349.00 Z M 445.50 351.00 L 479.00 328.50 L 480.50 325.00 L 399.00 208.50 L 363.50 234.00 L 439.50 345.00 L 445.50 351.00 Z M 392.50 363.00 L 400.00 361.50 L 412.00 355.50 L 421.00 348.50 L 423.50 344.00 L 364.00 258.50 L 353.00 260.50 L 331.00 260.50 L 313.00 256.50 L 293.00 248.50 L 280.00 249.50 L 255.00 255.50 L 214.00 268.50 L 200.00 275.50 L 192.50 283.00 L 173.50 311.00 L 186.00 316.50 L 199.00 316.50 L 215.00 310.50 L 240.00 289.50 L 275.00 290.50 L 392.50 363.00 Z M 286.50 483.00 L 294.50 475.00 L 294.50 465.00 L 289.00 458.50 L 258.50 439.00 L 257.50 433.00 L 260.00 429.50 L 267.00 428.50 L 316.00 459.50 L 322.00 459.50 L 330.50 453.00 L 332.50 449.00 L 332.50 442.00 L 326.00 433.50 L 274.00 401.50 L 271.50 399.00 L 273.00 390.50 L 281.00 389.50 L 350.00 432.50 L 360.00 430.50 L 366.50 421.00 L 365.50 414.00 L 362.00 408.50 L 295.00 366.50 L 292.50 364.00 L 292.50 358.00 L 296.00 354.50 L 305.00 356.50 L 377.00 401.50 L 386.00 399.50 L 391.50 394.00 L 391.50 381.00 L 382.00 372.50 L 272.00 303.50 L 245.00 302.50 L 224.00 320.50 L 202.00 329.50 L 184.00 329.50 L 163.00 321.50 L 158.50 316.00 L 158.50 310.00 L 180.50 277.00 L 189.50 267.00 L 170.00 263.50 L 149.00 254.50 L 86.50 344.00 L 87.50 348.00 L 97.50 362.00 L 108.00 372.50 L 122.00 356.50 L 132.00 352.50 L 144.00 353.50 L 150.00 356.50 L 158.00 365.50 L 163.00 360.50 L 171.00 356.50 L 185.00 356.50 L 193.00 360.50 L 200.50 369.00 L 202.50 375.00 L 201.50 390.00 L 213.00 394.50 L 218.50 400.00 L 222.50 408.00 L 224.00 418.50 L 230.00 418.50 L 237.00 421.50 L 242.50 426.00 L 247.50 434.00 L 248.50 448.00 L 241.50 461.00 L 277.00 483.50 L 286.50 483.00 Z M 121.50 414.00 L 128.50 409.00 L 147.50 380.00 L 146.50 372.00 L 138.00 365.50 L 131.00 366.50 L 126.50 370.00 L 106.50 400.00 L 107.50 408.00 L 113.00 413.50 L 121.50 414.00 Z M 140.50 452.00 L 146.50 447.00 L 187.50 388.00 L 189.50 384.00 L 189.50 377.00 L 184.00 370.50 L 177.00 368.50 L 167.50 375.00 L 126.50 434.00 L 124.50 438.00 L 125.50 447.00 L 132.00 452.50 L 140.50 452.00 Z M 177.50 460.00 L 185.50 455.00 L 209.50 420.00 L 210.50 413.00 L 204.00 404.50 L 196.00 403.50 L 192.00 405.50 L 164.50 444.00 L 163.50 450.00 L 165.50 455.00 L 171.00 459.50 L 177.50 460.00 Z M 212.50 474.00 L 219.50 470.00 L 235.50 446.00 L 233.50 436.00 L 227.00 431.50 L 218.00 432.50 L 198.50 460.00 L 199.50 468.00 L 208.00 474.50 L 212.50 474.00 Z" fill="currentColor" fill-rule="evenodd"/>
</svg>
