<?xml version="1.0" standalone="no"?>
<!DOCTYPE svg PUBLIC "-//W3C//DTD SVG 20010904//EN"
 "http://www.w3.org/TR/2001/REC-SVG-20010904/DTD/svg10.dtd">
<svg version="1.0" xmlns="http://www.w3.org/2000/svg"
 width="1521.000000pt" height="1076.000000pt" viewBox="0 0 1521.000000 1076.000000"
 preserveAspectRatio="xMidYMid meet">

<g transform="translate(0.000000,1076.000000) scale(0.100000,-0.100000)"
fill="#000000" stroke="none">
<path d="M8546 10071 c-5 -7 -6 -14 -5 -15 5 -5 129 -55 414 -169 111 -44 73
-46 -156 -6 -425 73 -809 100 -1146 81 -114 -6 -262 -19 -328 -27 -160 -21
-336 -58 -337 -70 0 -5 44 -28 98 -51 116 -48 344 -151 351 -158 11 -11 -10
-25 -60 -41 -28 -10 -153 -53 -277 -97 -746 -265 -1123 -468 -1584 -852 -127
-106 -122 -121 20 -55 129 60 274 118 480 193 401 145 778 236 1164 280 159
19 549 32 535 19 -5 -5 -102 -24 -215 -42 -113 -18 -263 -45 -335 -61 -71 -15
-155 -32 -185 -38 -65 -11 -286 -76 -455 -134 -1236 -418 -2115 -1242 -2488
-2333 -59 -171 -120 -382 -115 -396 2 -7 28 19 58 57 535 686 1216 1167 2098
1483 169 60 466 154 587 186 98 25 119 43 106 93 -9 33 1 31 -401 72 -168 17
-329 35 -359 40 -30 6 -70 10 -88 10 -18 0 -33 3 -33 8 0 9 74 72 175 149 402
304 893 488 1475 552 123 14 527 39 750 46 411 14 393 13 407 31 27 37 15 63
-59 133 -40 37 -118 110 -173 162 -55 51 -111 103 -124 114 -130 111 -140 130
-63 120 490 -67 877 -267 1177 -607 50 -57 75 -78 93 -78 27 0 61 35 62 65 0
11 -45 101 -101 200 -56 99 -108 194 -116 210 -7 17 -25 45 -39 64 -30 42 -40
79 -26 93 15 15 376 -220 467 -304 40 -38 94 -101 121 -140 26 -40 64 -98 83
-128 82 -124 187 -204 375 -286 111 -47 473 -184 489 -184 10 0 8 71 -5 192
-7 59 -9 110 -6 114 4 3 43 -13 87 -36 132 -69 257 -197 354 -365 45 -76 84
-165 218 -490 70 -171 90 -199 133 -191 34 7 74 41 87 74 16 41 27 23 44 -70
24 -131 56 -221 137 -382 109 -218 362 -656 378 -656 12 0 42 137 42 191 0 31
-11 72 -37 130 -20 46 -50 118 -65 159 -67 181 -153 341 -260 485 -136 182
-140 201 -114 542 8 98 -21 526 -42 637 -31 160 -107 290 -226 385 -59 47
-262 161 -287 161 -17 0 -14 -26 28 -196 22 -87 53 -220 70 -294 16 -74 36
-163 45 -197 8 -35 11 -65 6 -68 -5 -3 -26 30 -48 72 -54 106 -311 576 -380
693 -229 395 -515 657 -833 765 -97 33 -110 32 -153 -15 -42 -47 -43 -53 -14
-82 25 -25 303 -345 431 -497 49 -57 86 -106 83 -109 -8 -7 -275 198 -287 220
-6 11 -20 23 -32 27 -13 5 -68 41 -123 79 -416 295 -779 458 -1144 517 -135
21 -395 32 -404 16z"/>
<path d="M4230 9489 c-129 -89 -252 -177 -272 -196 -76 -74 -121 -231 -99
-349 33 -183 141 -296 294 -311 109 -10 228 33 384 138 68 46 72 51 83 101 6
29 14 88 17 130 9 112 2 112 -170 -6 -121 -82 -148 -96 -182 -96 -91 0 -155
65 -155 156 0 29 4 64 9 77 6 16 67 64 164 131 151 104 155 108 167 154 7 26
15 89 18 140 4 74 2 92 -9 92 -8 0 -120 -73 -249 -161z"/>
<path d="M4923 9590 c-42 -25 -63 -68 -63 -125 0 -64 21 -99 75 -125 100 -49
205 17 205 129 0 110 -123 179 -217 121z"/>
<path d="M3475 8938 c-11 -6 -31 -23 -44 -37 -13 -14 -50 -54 -82 -88 l-59
-61 0 -65 c0 -35 18 -192 40 -348 56 -402 57 -409 50 -409 -4 0 -11 10 -17 23
-6 12 -30 43 -53 70 -32 36 -51 48 -81 53 -36 6 -39 9 -54 60 -19 67 -61 115
-127 148 -67 34 -132 35 -179 3 -24 -16 -84 -103 -205 -297 -95 -151 -173
-281 -173 -289 -1 -7 22 -43 51 -80 29 -36 84 -106 123 -156 39 -49 115 -146
169 -214 53 -68 94 -127 89 -132 -10 -9 -228 -99 -241 -99 -6 0 -7 14 -1 38
12 52 11 169 -2 217 -16 56 -84 120 -150 140 -100 29 -177 17 -225 -37 -29
-31 -256 -606 -248 -627 7 -20 567 -515 587 -519 17 -4 121 246 111 269 -3 8
-46 50 -96 93 -49 43 -86 82 -81 86 4 3 73 37 153 74 80 38 153 76 163 85 10
10 33 58 51 107 39 106 69 159 241 434 177 282 191 307 210 373 9 31 22 57 29
57 14 0 378 363 407 406 15 23 19 45 18 99 -2 76 3 80 49 44 14 -10 33 -19 42
-19 10 0 58 43 106 96 86 93 87 95 68 113 -16 16 -348 252 -481 343 -36 25
-114 59 -132 58 -3 0 -15 -6 -26 -12z m187 -405 c51 -37 95 -68 97 -70 3 -2
-31 -39 -74 -83 -43 -44 -80 -78 -82 -76 -2 2 -13 57 -23 122 -11 66 -22 131
-25 147 -2 15 0 27 5 27 5 0 51 -30 102 -67z m-698 -559 c7 -18 0 -32 -61
-131 -42 -69 -45 -76 -38 -123 4 -27 5 -50 3 -50 -2 0 -21 22 -41 49 l-38 50
52 83 c73 118 89 138 104 138 7 0 16 -7 19 -16z m160 -210 c12 -32 5 -53 -56
-150 -33 -54 -63 -101 -64 -103 -7 -8 -34 22 -34 37 0 18 129 232 140 232 4 0
11 -7 14 -16z m-656 -669 c1 -11 -14 -61 -33 -110 -26 -64 -35 -99 -31 -122 3
-21 1 -33 -6 -33 -16 0 -58 41 -58 57 0 11 75 206 87 226 9 15 38 2 41 -18z"/>
<path d="M8323 8516 c-169 -43 -289 -164 -322 -326 -39 -198 -46 -261 -45
-430 0 -141 4 -193 22 -267 61 -266 191 -457 399 -586 51 -31 97 -57 102 -57
10 0 51 48 51 59 0 4 -27 43 -61 86 -103 135 -171 273 -217 440 -20 74 -25
121 -29 269 -4 108 -1 206 5 245 6 36 14 85 17 109 4 23 11 42 16 42 5 0 52
-37 105 -81 334 -281 670 -389 968 -313 153 40 376 143 376 176 0 4 -53 23
-117 43 -412 126 -692 269 -937 479 -49 43 -107 86 -129 98 -51 25 -136 32
-204 14z"/>
<path d="M4410 8161 c-258 -207 -493 -460 -685 -736 -188 -270 -351 -599 -453
-915 -42 -130 -84 -289 -80 -302 2 -6 23 36 47 93 256 606 680 1267 1159 1807
45 51 82 95 82 97 0 10 -11 3 -70 -44z"/>
<path d="M10147 7943 c-13 -13 -6 -21 71 -84 150 -123 513 -441 509 -446 -6
-5 -108 37 -198 82 -107 54 -288 124 -351 135 -68 13 -155 -5 -217 -42 -40
-24 -277 -252 -293 -281 -12 -24 6 -47 39 -47 20 0 268 -56 336 -76 23 -7 24
-82 2 -90 -9 -4 -50 -1 -93 5 -42 7 -180 25 -307 41 -126 17 -339 44 -473 61
-134 17 -246 28 -249 25 -7 -7 -2 -30 41 -201 13 -54 23 -102 20 -106 -2 -4
-57 20 -121 52 -123 61 -141 67 -161 47 -22 -22 -13 -56 26 -96 48 -50 212
-266 212 -279 0 -5 -12 -15 -27 -23 -241 -113 -381 -268 -463 -517 -42 -128
-42 -128 -41 -268 2 -198 32 -525 48 -525 3 0 33 30 67 67 133 146 316 257
496 303 108 27 311 37 435 21 49 -7 91 -14 94 -16 5 -6 -24 -50 -90 -136 -31
-41 -131 -179 -223 -306 -176 -244 -187 -268 -136 -286 22 -8 70 13 320 138
l294 147 18 -22 c25 -30 23 -44 -12 -82 -58 -64 -380 -490 -399 -526 -45 -90
-35 -133 80 -327 89 -152 163 -303 279 -575 51 -118 108 -246 127 -285 45 -90
114 -203 128 -209 5 -2 34 1 62 7 29 6 55 8 58 5 3 -3 -10 -191 -29 -419 -23
-265 -32 -417 -26 -423 6 -6 57 -4 142 7 72 10 135 14 138 10 4 -5 15 -55 24
-113 9 -58 20 -108 24 -112 4 -4 61 6 126 22 65 17 122 30 127 30 14 0 11 -46
-6 -88 -25 -61 -83 -307 -74 -310 10 -4 386 131 434 155 17 9 61 38 98 66 83
61 136 71 192 38 20 -11 42 -21 49 -21 8 0 29 20 47 45 19 24 42 47 52 50 9 4
17 12 17 19 0 7 9 21 20 31 12 10 19 25 18 33 -3 12 -141 67 -272 108 -16 5
-31 14 -33 19 -2 6 23 26 54 44 109 64 134 82 130 94 -9 27 -69 48 -164 58
-325 33 -584 146 -757 329 -157 166 -252 365 -337 703 -56 222 -96 343 -206
620 -52 131 -93 246 -91 255 3 16 323 292 339 292 11 0 0 -59 -16 -85 -15 -25
-51 -212 -42 -222 6 -5 173 15 360 44 55 8 48 -12 -34 -92 -39 -39 -86 -90
-104 -116 -47 -64 -101 -174 -115 -238 -32 -137 27 -436 85 -436 17 0 22 13
36 85 36 186 63 278 111 375 233 466 666 648 1163 488 232 -74 340 -191 425
-458 41 -127 41 -127 295 -369 91 -87 116 -96 210 -77 128 25 253 112 483 336
l127 123 0 73 c0 71 -3 80 -72 224 -40 84 -84 193 -99 248 -29 105 -46 127
-85 106 -17 -9 -20 -17 -15 -44 10 -54 46 -357 46 -392 l0 -33 -211 0 c-126 0
-218 -4 -230 -10 -14 -8 -19 -21 -19 -50 0 -35 3 -40 23 -40 23 0 284 -72 325
-90 23 -10 30 -34 12 -45 -5 -3 -78 -8 -162 -10 -84 -3 -166 -10 -181 -16 -30
-13 -64 -66 -50 -80 4 -4 55 -31 113 -59 93 -46 102 -53 85 -63 -27 -16 -221
-22 -271 -8 -53 14 -119 72 -149 131 -13 26 -36 105 -50 176 -32 154 -46 198
-91 285 -86 164 -248 279 -436 308 -35 6 -252 11 -483 12 -268 1 -425 5 -432
11 -20 17 -16 66 6 73 102 32 361 89 461 100 170 20 186 24 255 55 43 19 77
45 119 91 61 67 82 109 96 198 10 56 36 103 132 234 28 37 55 67 62 67 7 0 23
-11 36 -25 l23 -24 -29 -38 c-62 -81 -114 -167 -120 -201 -5 -25 -2 -45 12
-69 29 -54 634 -642 706 -685 69 -43 165 -81 183 -74 24 9 114 210 136 301 24
105 22 131 -24 240 -93 218 -170 338 -297 458 -183 174 -378 247 -657 247
-205 0 -411 -41 -603 -119 -41 -17 -81 -31 -89 -31 -8 0 -24 -9 -35 -20 -23
-21 -96 -54 -96 -44 0 4 30 39 68 78 171 181 219 374 152 616 -57 205 -193
412 -432 658 -55 57 -99 105 -97 107 2 2 57 -12 122 -31 152 -44 311 -61 434
-46 149 18 251 63 363 162 l54 49 4 94 4 95 -48 53 c-84 89 -264 238 -388 320
-219 146 -470 249 -682 283 -101 16 -315 22 -327 9z"/>
<path d="M6760 7404 c-645 -76 -1417 -395 -1999 -827 -366 -270 -697 -609
-875 -897 -49 -80 -57 -105 -28 -97 9 3 202 59 427 125 226 66 631 184 900
262 471 136 593 172 771 226 103 30 112 30 125 -3 24 -64 23 -79 -10 -99 -49
-31 -905 -680 -920 -698 -12 -15 42 -16 710 -16 398 0 729 -4 735 -8 17 -11
23 -50 10 -67 -6 -9 -21 -21 -33 -28 -51 -28 -314 -200 -319 -208 -7 -12 -3
-14 493 -199 528 -197 513 -191 513 -201 0 -9 -70 -59 -82 -59 -4 0 -24 -12
-45 -26 -143 -97 -406 -191 -643 -228 -217 -34 -535 -29 -862 13 -76 9 -143
14 -149 11 -27 -17 249 -204 436 -295 276 -135 529 -201 871 -226 256 -19 605
1 922 51 164 27 168 26 187 -11 l16 -30 -155 -157 c-165 -167 -236 -243 -236
-253 0 -16 33 -27 131 -42 127 -20 179 -21 279 -3 162 29 314 110 440 236 151
150 200 271 200 498 0 97 -3 121 -15 126 -14 5 -435 -76 -563 -109 -61 -16
-86 -14 -66 4 32 29 442 346 472 365 20 13 48 35 60 49 29 31 58 15 -283 157
-323 134 -325 135 -325 160 0 10 16 87 35 170 55 237 54 249 -55 548 -49 136
-94 255 -100 264 -17 30 -11 51 25 88 28 29 33 39 23 47 -7 6 -62 24 -123 41
-60 17 -213 60 -340 96 -126 36 -284 79 -350 96 -66 17 -124 35 -129 40 -11
11 -1 13 188 40 153 22 203 36 271 78 44 28 374 361 375 378 0 12 -97 59 -190
93 -198 71 -380 103 -605 104 -232 1 -537 -41 -750 -103 -144 -42 -267 -72
-272 -66 -16 15 267 155 426 210 317 110 719 172 1126 174 140 1 161 3 172 18
54 74 -70 172 -247 193 -115 15 -429 12 -570 -5z"/>
<path d="M11456 6680 c-22 -67 -26 -100 -26 -193 0 -205 47 -301 175 -358 62
-28 207 -37 305 -20 100 18 101 23 18 69 -189 104 -303 241 -401 482 -22 52
-41 97 -42 98 -2 2 -15 -33 -29 -78z"/>
<path d="M12274 6271 c-35 -21 -101 -122 -110 -168 -4 -21 -2 -32 9 -36 21 -8
300 -343 397 -477 152 -211 278 -335 460 -455 88 -58 303 -175 322 -175 17 0
6 36 -48 159 -157 357 -332 615 -608 899 -134 137 -237 227 -293 256 -42 21
-91 20 -129 -3z"/>
<path d="M2231 6263 c-48 -25 -73 -63 -78 -120 -13 -148 181 -209 264 -84 40
60 22 150 -38 194 -38 28 -106 32 -148 10z"/>
<path d="M1875 5350 c-10 -17 17 -184 32 -196 8 -7 43 -17 79 -24 35 -7 66
-15 69 -19 2 -4 -26 -50 -62 -103 l-65 -95 11 -89 c15 -110 19 -124 36 -124 8
0 42 35 76 78 33 42 64 78 68 80 4 1 17 -20 29 -47 25 -54 65 -99 100 -112 39
-15 115 -10 160 11 74 34 77 51 43 305 -16 119 -33 221 -39 227 -11 11 -22 14
-306 74 -234 49 -223 48 -231 34z m392 -278 c14 -9 38 -146 28 -163 -13 -20
-25 6 -31 71 -4 36 -11 73 -16 83 -9 18 -1 22 19 9z"/>
<path d="M1975 4668 c-3 -7 19 -96 50 -198 43 -147 60 -190 80 -207 14 -13 33
-23 41 -23 21 0 17 -12 -11 -35 -25 -20 -25 -20 -10 -70 9 -27 20 -67 26 -87
5 -21 15 -38 22 -38 29 0 392 178 430 211 l41 36 -24 79 c-30 101 -41 118 -98
142 -85 37 -521 202 -532 202 -6 0 -13 -6 -15 -12z m330 -304 c38 -15 74 -30
78 -34 6 -6 -106 -60 -124 -60 -3 0 -11 19 -18 43 -7 23 -15 50 -17 60 -7 22
-2 22 81 -9z"/>
<path d="M3595 4536 c-146 -23 -318 -87 -332 -123 -13 -32 106 -342 212 -553
489 -975 1426 -1679 2488 -1870 208 -37 337 -50 562 -57 419 -11 791 45 1205
183 222 74 240 84 263 157 10 32 17 64 14 71 -5 13 -210 65 -577 146 -283 62
-427 86 -656 107 -174 16 -184 16 -250 -2 -149 -40 -221 -28 -270 44 -30 45
-32 119 -4 191 11 28 20 69 20 91 0 85 -132 177 -385 268 -740 264 -1310 529
-1631 757 -152 108 -305 278 -345 384 -25 65 -24 103 2 158 18 37 19 46 8 53
-20 13 -230 9 -324 -5z"/>
<path d="M2535 4111 c-3 -5 7 -39 22 -75 14 -36 25 -68 22 -70 -2 -2 -84 -9
-182 -14 -98 -5 -180 -12 -183 -15 -7 -7 20 -87 49 -147 l22 -45 95 3 c52 1
139 5 192 8 l96 6 27 -56 c19 -40 34 -58 51 -62 19 -5 23 -11 18 -26 -4 -12 6
-42 26 -80 18 -32 30 -61 28 -64 -3 -2 -74 -15 -159 -29 -198 -33 -199 -33
-199 -51 0 -21 80 -165 95 -170 7 -3 90 8 186 25 111 19 179 26 190 21 9 -5
22 -23 29 -40 18 -42 61 -62 149 -68 72 -5 73 -4 66 17 -3 12 -55 108 -114
214 -78 140 -115 196 -134 205 -15 7 -27 20 -27 29 0 18 -155 396 -176 430 -9
14 -38 30 -80 43 -73 22 -100 25 -109 11z"/>
<path d="M8986 3854 c-87 -30 -109 -51 -150 -140 -71 -152 -198 -303 -338
-401 -88 -62 -227 -127 -387 -182 -127 -43 -136 -48 -139 -73 -4 -33 14 -46
132 -94 202 -82 380 -84 576 -6 158 63 293 167 385 297 57 81 132 229 146 291
12 53 13 51 -98 322 -8 18 -49 14 -127 -14z"/>
<path d="M9309 3287 c-30 -29 -144 -134 -252 -235 -108 -101 -197 -188 -197
-193 0 -15 22 -11 141 27 153 49 241 96 311 167 51 52 59 67 72 127 23 99 20
160 -8 160 -6 0 -36 -24 -67 -53z"/>
<path d="M2623 3104 c-3 -8 3 -27 14 -42 10 -15 61 -87 113 -160 92 -132 114
-152 166 -152 l25 0 -22 -29 -21 -29 46 -65 c25 -35 53 -70 60 -77 12 -9 41
13 163 130 164 156 203 202 203 238 0 14 -21 56 -47 94 -37 54 -54 70 -82 78
-20 5 -155 14 -301 20 -331 13 -310 13 -317 -6z m487 -191 c0 -12 -83 -93 -95
-93 -15 1 -67 78 -60 90 7 11 155 14 155 3z"/>
<path d="M3410 2654 c-291 -120 -350 -146 -350 -157 1 -20 121 -147 139 -147
9 0 54 16 100 35 46 20 86 34 88 31 3 -2 -20 -38 -51 -79 -31 -40 -56 -78 -56
-84 0 -11 136 -163 157 -176 13 -8 461 170 500 198 15 11 15 15 -5 41 -11 16
-42 50 -69 77 l-49 47 -97 -39 c-53 -22 -97 -36 -97 -32 0 4 25 41 55 81 30
40 55 77 55 81 0 17 -154 179 -169 179 -9 -1 -77 -26 -151 -56z"/>
<path d="M8660 2230 c0 -5 5 -10 10 -10 6 0 10 5 10 10 0 6 -4 10 -10 10 -5 0
-10 -4 -10 -10z"/>
<path d="M3797 2116 c-153 -40 -284 -79 -290 -85 -14 -15 0 -28 166 -156 135
-104 160 -117 205 -109 34 5 39 -3 22 -36 -9 -16 0 -27 59 -75 37 -30 75 -55
83 -55 9 0 55 73 115 183 130 236 123 220 123 260 0 31 -7 41 -65 87 -46 37
-76 53 -103 56 -24 2 -133 -22 -315 -70z m233 -146 c0 -16 -54 -110 -63 -110
-5 0 -28 15 -53 34 -45 34 -45 35 -22 47 56 30 138 47 138 29z"/>
<path d="M4539 1624 c-104 -104 -189 -194 -189 -202 0 -12 132 -79 370 -189
104 -48 165 -53 223 -20 56 33 107 91 107 121 0 17 10 28 41 41 72 33 117 142
84 205 -14 27 -45 45 -210 125 -106 51 -203 96 -215 100 -19 6 -49 -20 -211
-181z m351 -64 c33 -17 60 -35 60 -40 0 -15 -12 -12 -73 16 -31 14 -66 26 -77
27 -20 1 -25 8 -13 20 13 14 45 6 103 -23z m-135 -132 c62 -31 81 -48 51 -48
-21 0 -146 61 -146 71 0 16 29 9 95 -23z"/>
<path d="M5200 1449 c-50 -67 -100 -139 -111 -161 -25 -49 -28 -127 -7 -157
33 -47 122 -91 263 -131 91 -26 129 -25 190 4 54 26 85 52 157 136 26 29 49
52 51 49 2 -2 -27 -56 -65 -119 -37 -63 -68 -122 -68 -131 0 -20 74 -41 152
-43 l51 -1 53 89 53 89 3 -104 3 -104 69 -17 c37 -10 94 -20 125 -24 l56 -6
90 151 c49 82 91 149 93 147 2 -2 -24 -67 -57 -145 -34 -77 -61 -144 -61 -149
0 -18 36 -23 206 -29 147 -5 179 -4 225 11 100 33 158 81 266 222 22 28 22 28
14 4 -51 -154 -72 -232 -67 -246 6 -15 18 -16 99 -10 50 4 97 13 103 19 7 7
37 91 68 188 l56 176 81 7 c45 4 84 4 87 1 3 -3 -9 -74 -26 -158 -18 -84 -32
-165 -32 -181 0 -27 2 -28 38 -23 20 3 62 9 92 13 67 8 78 16 86 63 17 101 66
307 75 318 6 6 31 15 55 19 32 4 51 15 70 36 49 59 82 148 54 148 -14 0 -431
-59 -456 -65 -12 -3 -38 -30 -59 -61 -35 -52 -60 -70 -36 -26 6 12 11 30 11
42 0 20 -4 21 -102 18 l-103 -3 -32 -90 c-30 -85 -32 -88 -32 -48 -2 108 -30
122 -275 139 -105 7 -222 12 -261 11 -38 -1 -100 2 -136 7 l-66 8 -54 -88 -54
-89 -3 97 c-2 60 -7 100 -15 106 -17 14 -173 42 -233 42 -27 0 -83 11 -124 24
-41 13 -79 22 -85 20 -5 -3 -46 -52 -90 -110 -123 -163 -161 -189 -233 -162
-30 11 -38 19 -40 44 -2 25 13 53 84 150 48 65 87 125 88 133 1 9 -29 24 -84
42 -47 16 -91 29 -98 29 -6 0 -53 -54 -102 -121z m1543 -319 c27 -24 -53 -122
-128 -156 -46 -22 -95 -31 -95 -18 0 10 61 149 76 172 15 22 20 23 77 17 34
-4 66 -11 70 -15z m230 -48 c-3 -12 -9 -22 -14 -22 -5 0 -3 11 3 25 13 30 20
28 11 -3z"/>
<path d="M8104 1491 c-87 -53 -83 -205 7 -253 103 -55 219 12 219 127 0 56
-21 96 -66 126 -39 25 -119 25 -160 0z"/>
</g>
</svg>
