<svg xmlns="http://www.w3.org/2000/svg" viewBox="0 0 594 420" width="594" height="420">
  <path d="M 262 375 L 258 375 L 255 382 L 260 380 Z M 156 343 L 152 345 L 154 347 Z M 115 306 L 117 309 L 120 307 Z M 87 249 L 88 252 L 91 251 Z M 96 142 L 94 142 L 91 150 L 92 152 Z M 121 116 L 116 126 L 119 123 Z M 114 108 L 109 116 L 111 119 L 111 115 L 115 109 Z M 139 84 L 141 94 L 146 89 Z M 244 17 L 214 21 L 177 33 L 142 53 L 114 78 L 88 114 L 72 151 L 65 184 L 64 223 L 71 262 L 80 286 L 101 322 L 123 347 L 156 372 L 190 388 L 224 397 L 268 399 L 305 393 L 342 379 L 348 375 L 343 370 L 343 364 L 345 361 L 333 351 L 328 340 L 312 340 L 291 348 L 275 351 L 244 352 L 220 348 L 193 338 L 171 325 L 148 304 L 132 283 L 122 260 L 120 258 L 114 258 L 111 255 L 108 246 L 108 228 L 111 217 L 113 182 L 120 158 L 129 138 L 142 119 L 167 94 L 198 76 L 225 54 L 225 48 L 243 31 L 266 18 Z M 315 361 L 321 360 L 324 362 L 325 369 L 319 373 L 314 370 L 313 364 Z M 197 375 L 198 368 L 206 358 L 214 361 L 207 372 L 210 374 L 213 373 L 221 363 L 238 366 L 239 374 L 244 367 L 270 369 L 273 373 L 275 368 L 282 368 L 283 370 L 285 367 L 305 366 L 301 372 L 297 373 L 294 387 L 288 389 L 285 388 L 287 374 L 281 375 L 276 390 L 268 389 L 271 379 L 264 387 L 260 389 L 244 389 L 243 386 L 247 377 L 240 388 L 236 388 L 230 385 L 230 379 L 226 385 L 218 383 L 223 374 L 219 379 L 213 382 L 204 380 Z M 184 349 L 201 356 L 203 359 L 202 363 L 197 367 L 197 369 L 190 374 L 169 364 Z M 136 340 L 155 334 L 162 334 L 167 338 L 167 342 L 158 357 L 151 353 L 152 351 L 148 351 Z M 139 313 L 146 321 L 142 327 L 149 324 L 154 330 L 134 339 L 127 332 L 131 326 L 124 328 L 119 322 Z M 101 299 L 103 297 L 126 298 L 132 306 L 117 321 L 113 316 L 113 313 Z M 85 266 L 100 264 L 98 260 L 99 258 L 105 260 L 113 278 L 117 282 L 124 296 L 117 296 L 114 292 L 99 294 L 95 287 L 98 285 L 109 284 L 107 278 L 103 273 L 89 274 Z M 76 238 L 80 237 L 100 245 L 103 254 L 89 262 L 84 263 L 82 259 L 83 254 L 80 252 Z M 72 211 L 76 210 L 93 214 L 95 216 L 97 233 L 92 237 L 87 237 L 82 230 L 77 237 L 75 235 L 75 226 L 79 220 L 73 218 Z M 87 174 L 91 174 L 95 178 L 95 182 L 91 186 L 87 186 L 83 182 L 83 178 Z M 139 70 L 161 87 L 154 94 L 150 93 L 149 100 L 133 115 L 114 151 L 101 159 L 108 166 L 103 177 L 79 156 L 88 132 L 92 129 L 98 129 L 104 134 L 105 145 L 113 141 L 96 119 L 108 99 L 114 94 L 120 96 L 124 103 L 131 109 L 127 79 L 135 70 Z M 192 44 L 197 44 L 201 49 L 197 56 L 193 56 L 189 52 L 189 47 Z M 174 42 L 174 53 L 162 62 L 161 67 L 167 72 L 180 64 L 180 75 L 170 82 L 159 83 L 150 73 L 150 62 L 155 55 Z M 291 16 L 270 23 L 258 29 L 241 41 L 232 50 L 235 54 L 233 54 L 233 56 L 198 84 L 165 120 L 153 136 L 131 178 L 117 218 L 115 227 L 115 247 L 117 250 L 119 245 L 121 245 L 120 244 L 125 240 L 136 236 L 159 236 L 167 240 L 172 246 L 168 249 L 158 248 L 165 258 L 166 257 L 171 262 L 202 278 L 244 294 L 246 296 L 245 297 L 248 297 L 247 298 L 251 303 L 250 312 L 274 312 L 318 322 L 321 324 L 318 332 L 319 334 L 338 333 L 335 338 L 337 346 L 348 356 L 348 348 L 352 344 L 361 341 L 365 346 L 366 354 L 362 360 L 351 367 L 358 369 L 366 367 L 370 364 L 370 381 L 374 388 L 382 393 L 378 382 L 384 371 L 402 362 L 421 359 L 440 353 L 445 349 L 449 341 L 452 330 L 452 320 L 444 312 L 450 307 L 450 298 L 440 300 L 437 297 L 439 289 L 429 289 L 430 284 L 426 284 L 422 279 L 420 264 L 424 260 L 431 257 L 440 256 L 449 259 L 451 266 L 445 277 L 454 274 L 458 270 L 461 277 L 453 290 L 459 290 L 467 285 L 470 288 L 470 293 L 462 301 L 473 300 L 480 295 L 486 286 L 499 284 L 526 253 L 529 247 L 527 230 L 519 209 L 506 187 L 492 171 L 487 157 L 473 131 L 471 124 L 470 75 L 465 62 L 453 52 L 424 38 L 408 27 L 393 21 L 364 19 L 327 13 L 312 13 Z M 384 295 L 386 293 L 391 294 L 392 297 L 387 298 Z M 366 289 L 367 295 L 361 303 L 362 302 L 363 304 L 352 311 L 349 310 L 348 312 L 344 311 L 349 308 L 345 308 Z M 326 278 L 327 280 L 323 283 L 322 282 Z M 396 275 L 398 278 L 396 280 Z M 357 270 L 360 282 L 356 289 L 357 290 L 342 303 L 351 296 L 352 298 L 347 303 L 332 310 L 319 310 L 319 308 L 317 309 L 314 308 L 314 306 L 311 306 L 310 300 L 333 289 L 340 282 L 348 269 L 354 267 Z M 416 246 L 417 248 L 412 252 L 411 250 Z M 477 237 L 481 241 L 479 243 L 475 240 Z M 469 229 L 477 237 L 475 239 L 467 232 Z M 454 217 L 457 217 L 457 219 L 458 218 L 468 228 L 466 230 Z M 493 211 L 495 208 L 498 211 L 496 213 Z M 476 184 L 478 186 L 475 188 L 474 186 Z M 479 174 L 486 175 L 507 197 L 522 224 L 519 229 L 515 227 L 517 224 L 518 225 L 517 224 L 513 227 L 513 225 L 508 224 L 506 222 L 507 221 L 505 222 L 498 216 L 498 214 L 496 214 L 498 211 L 502 215 L 494 207 L 492 209 L 487 201 L 475 189 L 477 187 L 483 192 L 482 193 L 483 192 L 474 182 L 475 178 Z M 172 161 L 173 162 L 170 165 L 169 163 Z M 448 156 L 454 168 L 468 180 L 464 182 L 466 183 L 464 185 L 453 185 L 446 179 L 446 171 L 445 174 L 444 170 L 446 164 L 445 162 Z M 467 153 L 470 153 L 472 156 L 470 158 Z M 465 144 L 467 147 L 465 149 L 463 146 Z M 149 200 L 159 186 L 185 162 L 222 141 L 260 130 L 283 129 L 292 131 L 296 135 L 294 142 L 264 144 L 241 150 L 254 147 L 271 146 L 288 149 L 299 154 L 299 156 L 295 159 L 298 159 L 293 164 L 292 163 L 292 166 L 289 168 L 288 167 L 290 165 L 284 170 L 287 168 L 288 169 L 285 173 L 280 174 L 279 176 L 273 176 L 302 183 L 304 185 L 301 189 L 310 212 L 306 228 L 331 240 L 322 250 L 320 249 L 324 245 L 317 251 L 319 249 L 321 250 L 316 255 L 314 253 L 315 252 L 310 257 L 312 257 L 312 255 L 316 256 L 334 252 L 334 267 L 331 273 L 321 282 L 323 283 L 311 290 L 300 291 L 293 289 L 293 284 L 308 268 L 307 270 L 287 273 L 259 273 L 235 267 L 232 265 L 233 264 L 228 264 L 228 262 L 227 263 L 226 261 L 221 260 L 213 254 L 213 252 L 216 252 L 213 249 L 214 248 L 247 250 L 260 248 L 278 240 L 243 225 L 245 224 L 245 220 L 257 213 L 255 212 L 255 214 L 202 214 L 200 212 L 203 210 L 200 209 L 233 184 L 235 182 L 233 180 L 228 183 L 224 182 L 224 184 L 214 187 L 211 186 L 211 188 L 204 190 L 200 187 L 203 189 L 201 191 L 188 195 L 183 194 L 185 192 L 183 194 L 180 193 L 184 195 L 152 205 L 149 203 L 153 201 L 150 202 Z M 396 109 L 409 109 L 425 114 L 442 125 L 453 136 L 452 143 L 448 147 L 449 146 L 450 148 L 444 153 L 438 155 L 423 155 L 415 149 L 428 163 L 436 179 L 436 192 L 432 198 L 433 199 L 427 204 L 430 201 L 432 202 L 451 196 L 469 197 L 480 202 L 489 211 L 497 227 L 497 234 L 492 246 L 490 247 L 491 248 L 488 249 L 481 246 L 479 243 L 481 241 L 486 244 L 482 242 L 455 215 L 461 204 L 459 202 L 458 203 L 460 202 L 461 204 L 454 208 L 454 212 L 452 212 L 452 216 L 448 221 L 448 224 L 446 226 L 444 225 L 445 224 L 440 226 L 444 225 L 445 227 L 443 229 L 423 233 L 421 232 L 420 234 L 415 233 L 416 231 L 416 234 L 452 234 L 460 237 L 468 245 L 473 264 L 478 269 L 486 270 L 481 268 L 484 266 L 489 269 L 482 266 L 484 261 L 489 260 L 482 258 L 484 251 L 501 251 L 501 245 L 501 247 L 499 247 L 499 234 L 501 232 L 511 253 L 510 259 L 498 273 L 496 272 L 498 270 L 488 276 L 496 272 L 497 273 L 492 278 L 482 281 L 473 273 L 476 272 L 482 277 L 486 277 L 482 277 L 469 265 L 473 270 L 472 272 L 466 266 L 465 263 L 468 263 L 464 259 L 465 257 L 466 258 L 464 258 L 461 254 L 464 252 L 460 252 L 456 247 L 458 245 L 462 249 L 457 244 L 454 243 L 457 246 L 455 247 L 453 245 L 450 246 L 443 243 L 429 243 L 422 245 L 422 242 L 419 244 L 420 243 L 422 245 L 420 247 L 417 247 L 417 245 L 408 254 L 408 257 L 405 259 L 402 267 L 401 278 L 398 282 L 396 280 L 398 278 L 396 272 L 396 275 L 394 275 L 395 260 L 398 253 L 406 245 L 402 244 L 405 245 L 403 248 L 391 249 L 392 238 L 383 245 L 382 243 L 384 241 L 381 244 L 383 245 L 381 247 L 388 263 L 395 289 L 403 304 L 416 314 L 428 318 L 439 319 L 442 322 L 441 324 L 440 323 L 442 325 L 442 328 L 440 329 L 446 331 L 445 337 L 439 343 L 434 342 L 424 348 L 412 352 L 408 351 L 408 349 L 411 348 L 409 347 L 411 340 L 410 338 L 402 339 L 399 330 L 392 331 L 388 329 L 391 327 L 388 325 L 390 320 L 389 312 L 391 309 L 392 294 L 385 294 L 382 291 L 377 281 L 378 279 L 384 289 L 379 279 L 376 279 L 373 271 L 374 267 L 372 268 L 370 266 L 372 263 L 373 264 L 371 261 L 372 263 L 370 265 L 361 249 L 363 246 L 361 246 L 363 239 L 379 219 L 378 218 L 374 221 L 372 219 L 377 216 L 380 217 L 377 216 L 371 219 L 373 221 L 372 222 L 369 220 L 367 221 L 369 220 L 371 222 L 355 230 L 353 228 L 355 226 L 353 224 L 369 202 L 366 200 L 348 201 L 348 203 L 342 204 L 341 206 L 339 204 L 340 203 L 338 205 L 339 207 L 332 213 L 331 212 L 330 215 L 327 212 L 329 210 L 329 207 L 329 210 L 327 210 L 327 187 L 329 180 L 334 171 L 348 160 L 345 156 L 348 159 L 347 161 L 342 157 L 344 154 L 342 152 L 344 154 L 342 156 L 338 152 L 338 147 L 342 145 L 349 149 L 350 147 L 349 149 L 347 146 L 349 145 L 347 144 L 348 137 L 384 141 L 376 139 L 379 136 L 376 135 L 392 121 L 401 122 L 409 126 L 404 122 L 405 121 L 404 122 L 397 116 L 400 114 L 404 118 L 395 110 Z M 325 86 L 333 87 L 353 102 L 379 112 L 372 116 L 375 115 L 375 118 L 367 122 L 352 124 L 335 118 L 333 116 L 334 115 L 333 116 L 330 113 L 332 111 L 338 115 L 332 111 L 330 113 L 325 111 L 324 109 L 326 107 L 330 110 L 322 104 L 326 107 L 321 109 L 321 125 L 325 138 L 333 149 L 331 153 L 328 151 L 332 154 L 330 156 L 328 155 L 329 154 L 327 155 L 321 151 L 316 143 L 314 143 L 310 133 L 311 126 L 310 128 L 309 127 L 312 97 L 317 90 Z M 389 38 L 390 37 L 394 40 L 391 42 Z M 482 159 L 481 167 L 478 171 L 470 159 L 472 156 L 468 152 L 469 151 L 467 153 L 466 152 L 468 149 L 463 139 L 464 141 L 462 142 L 459 137 L 458 129 L 456 127 L 458 125 L 459 127 L 459 125 L 456 127 L 457 129 L 455 131 L 450 129 L 449 127 L 452 127 L 450 123 L 447 123 L 444 113 L 445 112 L 447 115 L 445 111 L 444 113 L 441 109 L 443 106 L 441 108 L 440 107 L 442 104 L 440 106 L 431 94 L 432 93 L 431 94 L 424 89 L 425 96 L 420 96 L 424 99 L 422 101 L 405 95 L 389 84 L 386 79 L 387 78 L 385 77 L 386 75 L 388 76 L 385 72 L 387 74 L 385 76 L 378 70 L 379 69 L 378 70 L 367 63 L 375 76 L 375 80 L 373 82 L 368 78 L 372 82 L 371 83 L 374 83 L 370 85 L 365 79 L 366 77 L 364 78 L 364 76 L 363 77 L 360 75 L 362 72 L 359 69 L 362 72 L 360 74 L 350 67 L 335 61 L 334 57 L 335 59 L 333 61 L 326 59 L 340 72 L 340 74 L 338 76 L 322 76 L 335 76 L 335 78 L 338 76 L 339 77 L 337 80 L 283 83 L 261 90 L 259 89 L 243 98 L 241 97 L 243 95 L 239 98 L 241 97 L 242 99 L 233 105 L 234 106 L 263 109 L 263 116 L 261 117 L 259 115 L 261 114 L 256 115 L 261 117 L 222 131 L 219 129 L 220 131 L 202 141 L 200 139 L 205 136 L 201 138 L 200 142 L 195 146 L 193 144 L 195 142 L 193 147 L 190 149 L 188 147 L 186 149 L 188 147 L 189 149 L 184 153 L 184 150 L 174 159 L 180 153 L 184 153 L 173 162 L 172 160 L 168 164 L 170 165 L 161 172 L 162 174 L 155 179 L 157 179 L 155 182 L 152 181 L 157 163 L 169 139 L 183 120 L 197 106 L 219 90 L 251 75 L 266 71 L 250 75 L 248 74 L 247 76 L 243 76 L 227 83 L 225 82 L 224 84 L 219 82 L 221 84 L 216 87 L 213 86 L 215 84 L 212 86 L 211 84 L 220 76 L 252 57 L 284 45 L 280 41 L 278 42 L 272 38 L 277 37 L 272 35 L 274 33 L 291 30 L 323 30 L 333 32 L 340 30 L 334 28 L 334 26 L 349 26 L 367 31 L 397 49 L 393 44 L 395 41 L 396 42 L 390 34 L 393 31 L 396 31 L 405 35 L 424 52 L 444 87 L 440 73 L 442 72 L 440 71 L 440 63 L 441 62 L 452 68 L 459 76 L 462 85 L 463 123 L 473 138 Z" fill="#e4e0d3" fill-rule="evenodd"/>
  <path d="M 321 361 L 315 362 L 314 368 L 316 371 L 319 372 L 324 369 L 324 364 Z M 170 363 L 171 365 L 189 373 L 193 372 L 201 363 L 202 365 L 198 370 L 198 375 L 200 377 L 213 381 L 219 378 L 223 373 L 224 375 L 219 383 L 226 384 L 230 378 L 231 385 L 236 387 L 240 387 L 245 380 L 246 383 L 244 388 L 260 388 L 270 379 L 271 382 L 269 389 L 276 389 L 280 375 L 286 373 L 288 374 L 286 388 L 293 387 L 296 373 L 301 371 L 304 366 L 285 368 L 283 371 L 282 369 L 275 369 L 273 374 L 270 370 L 244 368 L 239 375 L 238 367 L 221 364 L 215 372 L 210 375 L 206 372 L 213 361 L 206 359 L 202 364 L 201 357 L 187 350 L 180 353 Z M 262 374 L 263 378 L 255 383 L 254 380 L 258 374 Z M 181 363 L 184 362 L 188 365 L 185 366 Z M 186 358 L 189 357 L 192 359 L 189 360 Z M 137 340 L 148 350 L 152 350 L 152 353 L 156 356 L 158 356 L 166 342 L 166 338 L 162 335 L 155 335 Z M 156 342 L 157 344 L 154 348 L 151 344 Z M 139 314 L 120 322 L 124 327 L 130 325 L 132 326 L 128 332 L 134 338 L 153 330 L 149 325 L 142 328 L 141 327 L 145 321 Z M 102 299 L 114 313 L 113 314 L 117 320 L 131 306 L 126 299 Z M 114 306 L 120 305 L 121 307 L 117 310 Z M 366 290 L 346 308 L 360 303 L 365 298 Z M 356 270 L 354 268 L 348 270 L 341 282 L 333 290 L 312 299 L 311 301 L 320 305 L 331 306 L 346 300 L 353 293 L 359 282 Z M 86 266 L 89 273 L 103 272 L 108 278 L 110 283 L 109 285 L 96 287 L 99 293 L 114 291 L 117 295 L 123 296 L 116 282 L 112 278 L 105 261 L 99 259 L 100 265 Z M 127 247 L 137 272 L 155 298 L 180 320 L 201 332 L 225 340 L 250 344 L 276 343 L 294 339 L 311 332 L 312 328 L 278 320 L 263 318 L 248 320 L 242 315 L 244 304 L 232 296 L 196 283 L 168 268 L 153 254 L 151 250 L 151 242 L 138 243 Z M 77 238 L 81 252 L 84 254 L 84 262 L 102 254 L 100 246 Z M 86 249 L 89 248 L 92 251 L 88 253 Z M 73 211 L 74 218 L 80 220 L 76 226 L 76 235 L 77 236 L 82 229 L 87 236 L 94 235 L 96 233 L 94 216 Z M 88 221 L 90 226 L 89 228 L 87 226 Z M 479 175 L 475 182 L 494 206 L 507 218 L 521 225 L 512 206 L 503 193 L 486 176 Z M 87 175 L 84 178 L 84 182 L 87 185 L 91 185 L 94 182 L 94 178 L 91 175 Z M 448 157 L 446 162 L 448 176 L 456 181 L 467 180 L 453 168 Z M 150 200 L 155 200 L 236 176 L 238 178 L 237 182 L 201 209 L 257 209 L 258 213 L 245 222 L 280 235 L 283 238 L 260 249 L 247 251 L 214 249 L 217 252 L 235 262 L 257 268 L 278 269 L 306 265 L 309 269 L 294 284 L 298 286 L 310 286 L 320 282 L 330 273 L 333 267 L 334 253 L 312 258 L 309 257 L 330 240 L 305 228 L 309 212 L 300 189 L 303 185 L 266 174 L 283 170 L 298 156 L 298 154 L 288 150 L 271 147 L 248 149 L 231 154 L 228 153 L 238 147 L 260 140 L 295 138 L 295 135 L 292 132 L 283 130 L 260 131 L 222 142 L 185 163 L 160 186 Z M 396 110 L 418 129 L 416 130 L 397 122 L 388 124 L 377 135 L 391 138 L 393 140 L 392 143 L 348 138 L 351 149 L 349 150 L 342 146 L 339 147 L 349 160 L 335 171 L 330 180 L 328 187 L 330 212 L 340 202 L 351 197 L 369 196 L 373 198 L 354 225 L 356 226 L 377 215 L 381 217 L 364 239 L 363 245 L 374 264 L 386 292 L 393 294 L 390 326 L 401 325 L 403 334 L 413 332 L 414 335 L 410 347 L 423 343 L 434 336 L 440 338 L 445 331 L 433 327 L 441 322 L 439 320 L 428 319 L 416 315 L 402 304 L 394 289 L 390 272 L 380 247 L 380 244 L 393 233 L 394 236 L 392 245 L 402 243 L 407 244 L 399 253 L 396 260 L 396 271 L 399 278 L 403 261 L 410 250 L 420 242 L 432 238 L 441 238 L 457 243 L 465 252 L 469 264 L 482 276 L 487 276 L 499 269 L 509 259 L 510 253 L 501 233 L 502 251 L 484 252 L 484 255 L 497 258 L 498 260 L 483 263 L 483 265 L 490 269 L 489 270 L 478 270 L 472 264 L 467 245 L 460 238 L 452 235 L 416 235 L 414 233 L 414 231 L 418 229 L 439 226 L 446 223 L 450 219 L 453 208 L 459 201 L 462 204 L 456 215 L 482 241 L 491 245 L 496 234 L 496 227 L 488 211 L 480 203 L 469 198 L 451 197 L 430 203 L 428 205 L 426 204 L 435 192 L 435 179 L 427 163 L 414 149 L 417 148 L 428 151 L 443 149 L 451 143 L 452 136 L 442 126 L 425 115 L 409 110 Z M 173 101 L 153 119 L 141 136 L 132 153 L 125 175 L 142 141 L 157 119 Z M 325 87 L 317 91 L 313 97 L 311 107 L 311 125 L 318 142 L 325 149 L 331 152 L 332 149 L 325 140 L 320 125 L 320 109 L 322 103 L 339 115 L 352 119 L 365 118 L 378 112 L 357 105 L 342 96 L 333 88 Z M 139 71 L 135 71 L 128 79 L 132 109 L 131 110 L 127 105 L 125 105 L 120 97 L 114 95 L 109 99 L 97 119 L 114 141 L 105 146 L 103 134 L 98 130 L 92 130 L 89 132 L 80 156 L 103 176 L 107 166 L 100 159 L 113 151 L 132 115 L 148 100 L 149 93 L 154 93 L 160 87 Z M 96 141 L 97 143 L 94 152 L 92 153 L 90 150 L 93 142 Z M 121 115 L 122 119 L 116 127 L 115 124 Z M 114 107 L 116 109 L 111 120 L 108 116 Z M 139 83 L 147 89 L 141 95 L 139 94 Z M 192 45 L 190 47 L 190 52 L 193 55 L 197 55 L 200 49 L 197 45 Z M 174 43 L 155 56 L 151 62 L 151 73 L 159 82 L 170 81 L 179 75 L 180 65 L 167 73 L 160 67 L 161 62 L 173 53 Z M 481 159 L 472 138 L 462 123 L 461 85 L 458 76 L 452 69 L 441 63 L 447 88 L 446 92 L 423 52 L 405 36 L 396 32 L 391 34 L 391 36 L 410 58 L 409 59 L 392 46 L 367 32 L 349 27 L 334 27 L 352 35 L 349 36 L 323 31 L 291 31 L 273 35 L 291 43 L 252 58 L 220 77 L 212 85 L 234 75 L 261 67 L 279 64 L 301 64 L 298 66 L 271 70 L 251 76 L 219 91 L 197 107 L 184 120 L 170 139 L 158 163 L 153 181 L 172 159 L 201 137 L 240 119 L 263 113 L 263 110 L 234 107 L 229 105 L 241 95 L 258 86 L 277 80 L 306 76 L 338 75 L 339 72 L 320 55 L 321 54 L 335 56 L 352 63 L 373 81 L 374 76 L 363 59 L 365 56 L 378 64 L 388 74 L 390 79 L 403 89 L 424 96 L 423 86 L 425 85 L 429 87 L 440 98 L 452 126 L 455 127 L 458 124 L 460 125 L 462 136 L 479 167 Z" fill="#0f1121" fill-rule="evenodd"/>
  <path d="M 444 335 L 440 339 L 433 338 L 422 345 L 409 349 L 409 351 L 424 347 L 434 341 L 439 342 L 442 340 Z M 389 329 L 399 329 L 401 331 L 402 338 L 411 338 L 413 333 L 403 335 L 400 326 Z M 441 323 L 435 327 L 441 328 Z M 363 302 L 358 306 L 345 311 L 348 311 L 349 309 L 352 310 Z M 353 295 L 346 302 L 334 307 L 324 308 L 312 303 L 311 304 L 319 309 L 332 309 L 344 304 Z M 330 275 L 322 283 L 313 287 L 301 288 L 295 286 L 293 288 L 300 290 L 314 288 L 324 282 Z M 374 268 L 380 286 L 385 293 L 384 294 L 387 297 L 391 297 L 391 295 L 387 295 L 380 285 Z M 509 261 L 492 276 L 482 278 L 474 273 L 466 263 L 477 277 L 484 280 L 492 277 Z M 483 257 L 490 260 L 497 260 L 485 256 Z M 213 253 L 221 259 L 226 260 L 228 263 L 253 271 L 287 272 L 307 269 L 307 267 L 286 270 L 254 269 L 239 266 L 223 258 L 219 254 Z M 404 245 L 392 246 L 391 248 L 403 247 Z M 362 245 L 362 249 L 372 267 L 373 266 Z M 329 244 L 328 243 L 312 256 L 328 243 Z M 409 254 L 417 246 L 429 242 L 443 242 L 456 246 L 464 255 L 466 261 L 462 250 L 457 245 L 456 246 L 455 244 L 444 240 L 430 240 L 424 242 L 421 245 L 418 245 Z M 244 225 L 264 234 L 274 236 L 278 239 L 281 238 L 258 228 L 251 227 L 250 225 Z M 448 223 L 442 227 L 424 229 L 417 231 L 416 233 L 440 229 Z M 455 217 L 456 220 L 481 245 L 490 248 L 489 247 L 491 246 L 486 246 Z M 379 217 L 360 226 L 354 227 L 353 229 Z M 200 213 L 255 213 L 257 211 L 204 210 Z M 371 198 L 354 198 L 347 200 L 337 206 L 330 214 L 328 210 L 328 202 L 328 212 L 330 214 L 342 203 L 343 204 L 352 200 L 370 200 Z M 474 184 L 477 188 L 476 189 L 488 201 L 498 215 L 508 223 L 520 229 L 519 226 L 502 216 Z M 237 180 L 236 178 L 205 186 L 204 188 L 202 187 L 184 194 L 175 195 L 150 203 L 152 204 L 188 194 L 231 180 Z M 445 170 L 446 177 L 450 183 L 465 183 L 455 183 L 451 181 L 446 176 Z M 291 164 L 284 172 L 271 174 L 279 175 L 280 173 L 285 172 Z M 338 150 L 347 160 L 341 151 Z M 450 146 L 439 152 L 424 152 L 417 150 L 423 154 L 438 154 L 444 152 Z M 463 143 L 478 170 L 477 165 Z M 294 140 L 285 139 L 254 143 L 234 151 L 264 143 Z M 377 139 L 392 141 L 380 137 Z M 311 129 L 315 143 L 317 143 L 321 150 L 330 155 L 330 153 L 318 145 L 314 139 Z M 450 127 L 453 131 L 457 127 L 459 129 L 460 137 L 463 141 L 458 126 L 456 128 Z M 398 114 L 398 116 L 407 124 L 415 128 Z M 262 114 L 222 128 L 219 131 L 218 130 L 199 140 L 173 160 L 154 182 L 174 160 L 200 140 L 201 141 L 225 128 L 260 117 Z M 322 105 L 322 107 L 329 113 L 330 112 L 335 117 L 347 122 L 359 123 L 367 121 L 376 115 L 377 116 L 376 115 L 364 120 L 348 120 L 333 114 Z M 424 86 L 426 90 L 434 95 L 441 107 L 443 107 L 442 109 L 449 123 L 443 107 L 436 95 Z M 338 77 L 313 77 L 275 82 L 249 92 L 231 105 L 259 88 L 261 89 L 273 84 L 300 80 L 337 79 Z M 293 65 L 276 66 L 267 69 L 264 68 L 236 76 L 235 78 L 233 77 L 227 81 L 221 82 L 220 84 L 218 83 L 212 88 L 223 82 L 224 83 L 225 81 L 227 82 L 243 75 L 247 75 L 248 73 L 250 74 L 268 70 L 270 68 L 272 69 L 275 67 L 277 68 Z M 364 57 L 367 62 L 380 70 L 388 78 L 387 79 L 390 84 L 396 89 L 421 100 L 423 99 L 419 96 L 408 92 L 407 93 L 405 91 L 404 92 L 395 86 L 381 68 Z M 322 55 L 325 58 L 334 59 L 357 70 L 370 84 L 374 82 L 372 83 L 354 66 L 339 59 Z M 390 38 L 397 48 L 408 57 Z M 273 38 L 285 44 L 289 43 L 280 39 L 279 40 L 278 38 Z M 334 31 L 337 30 L 338 32 L 347 34 L 337 30 Z" fill="#ffffff" fill-rule="evenodd"/>
</svg>